<?xml version="1.0" standalone="no"?>
<!DOCTYPE svg PUBLIC "-//W3C//DTD SVG 20010904//EN"
 "http://www.w3.org/TR/2001/REC-SVG-20010904/DTD/svg10.dtd">
<svg version="1.0" xmlns="http://www.w3.org/2000/svg"
 width="640.000000pt" height="1280.000000pt" viewBox="0 0 640.000000 1280.000000"
 preserveAspectRatio="xMidYMid meet">
<g transform="translate(0.000000,1280.000000) scale(0.100000,-0.100000)"
fill="#000000" stroke="none">
<path d="M205 12763 c28 -160 59 -294 90 -383 19 -58 49 -152 66 -210 16 -58
56 -193 88 -300 33 -107 64 -213 69 -235 6 -22 24 -78 40 -125 38 -107 102
-340 102 -369 0 -12 14 -68 30 -124 17 -56 64 -239 105 -405 41 -167 88 -349
104 -405 17 -56 42 -156 56 -222 57 -267 148 -623 170 -665 13 -25 31 -81 40
-125 10 -44 28 -107 41 -140 14 -32 38 -113 55 -180 39 -150 189 -576 236
-670 71 -142 169 -257 341 -401 67 -56 171 -134 230 -173 142 -93 200 -144
200 -177 -1 -25 -2 -26 -45 -21 -36 4 -54 14 -92 50 -25 24 -102 78 -169 118
-68 41 -148 94 -177 119 -30 25 -76 57 -104 70 -27 14 -52 33 -54 43 -4 14
-37 26 -37 13 0 -8 46 -101 71 -146 15 -25 75 -135 134 -245 205 -379 318
-556 387 -601 22 -14 32 -29 34 -50 6 -71 5 -342 -1 -375 -9 -48 16 -137 57
-206 68 -115 256 -279 383 -333 36 -15 46 -26 55 -57 9 -30 31 -429 24 -441 0
-1 -32 -8 -70 -16 -122 -23 -151 -47 -213 -178 -26 -55 -52 -94 -71 -108 -19
-13 -45 -54 -73 -113 -25 -51 -56 -102 -69 -115 -23 -21 -103 -57 -373 -171
-136 -57 -203 -95 -417 -240 -223 -151 -260 -184 -416 -364 -158 -183 -265
-342 -357 -531 -131 -267 -187 -434 -245 -725 -65 -330 -12 -836 126 -1209 73
-195 204 -460 275 -555 22 -28 39 -54 39 -57 0 -10 136 -156 275 -295 168
-169 263 -241 495 -378 235 -139 235 -138 396 -191 172 -55 300 -88 459 -117
209 -39 637 -31 900 17 223 40 562 189 828 363 76 50 141 91 143 91 11 0 211
180 275 246 127 134 313 403 406 588 121 241 194 449 248 704 28 137 19 708
-16 892 -58 309 -245 726 -448 997 -137 183 -412 439 -626 583 -144 96 -317
180 -565 272 -234 87 -280 119 -331 226 -17 37 -51 88 -74 113 -24 26 -62 82
-83 126 -47 92 -57 102 -120 118 -43 11 -47 15 -55 51 -5 21 -7 111 -5 199 3
138 7 166 25 208 19 41 30 51 80 74 79 36 184 105 240 156 77 71 154 198 187
307 18 60 46 258 46 328 0 40 5 50 58 105 33 34 83 91 113 128 30 36 84 101
121 145 37 43 133 165 214 269 80 105 163 208 184 230 20 22 47 56 60 75 13
19 43 55 67 80 58 60 246 295 315 395 61 88 184 336 228 460 15 44 42 112 60
150 17 39 45 111 60 160 16 50 51 153 79 230 28 77 65 190 82 250 17 61 50
151 73 200 24 50 50 124 60 165 10 41 44 156 76 255 32 99 71 225 85 280 25
94 69 236 130 420 73 219 160 540 204 755 7 30 34 124 61 210 94 298 150 491
166 578 9 48 45 178 80 289 35 111 64 219 64 242 l0 41 -2995 0 -2996 0 6 -37z"/>
</g>
</svg>
